<svg xmlns="http://www.w3.org/2000/svg" xmlns:xlink="http://www.w3.org/1999/xlink" aria-hidden="true" role="img" class="iconify iconify--logos" width="31.88" height="32" preserveAspectRatio="xMidYMid meet" viewBox="0 0 256 257"><defs><linearGradient id="IconifyId1813088fe1fbc01fb466" x1="-.828%" x2="57.636%" y1="7.652%" y2="78.411%"><stop offset="0%" stop-color="#41D1FF"></stop><stop offset="100%" stop-color="#BD34FE"></stop></linearGradient><linearGradient id="IconifyId1813088fe1fbc01fb467" x1="43.376%" x2="56.324%" y1="9.757%" y2="90.133%"><stop offset="0%" stop-color="#FFEA83"></stop><stop offset="8.333%" stop-color="#FFDD35"></stop><stop offset="100%" stop-color="#FFA800"></stop></linearGradient></defs><path fill="url(#IconifyId1813088fe1fbc01fb466)" d="M255.153 37.342L132.855 252.115a4.933 4.933 0 0 1-9.31-.001L1.247 37.342a4.934 4.934 0 0 1 4.311-7.343h244.004a4.934 4.934 0 0 1 4.311 7.343z"></path><path fill="url(#IconifyId1813088fe1fbc01fb467)" d="M185.432.775L132.855 252.115a4.933 4.933 0 0 1-9.31-.001l-11.82-50.607a4.934 4.934 0 0 1 2.943-5.62l70.55-25.545a4.934 4.934 0 0 0 2.65-4.846L185.432.775z"></path></svg>
